<svg width="24" height="24" viewBox="0 0 24 24" fill="none" xmlns="http://www.w3.org/2000/svg">
<g clip-path="url(#clip0_1_3899)">
<path d="M9.99427 14.7043C10.5914 15.1024 11.2849 15.3128 12 15.3128C12.715 15.3128 13.4086 15.1024 14.0057 14.7043L23.8402 8.14777C23.8948 8.11139 23.9479 8.07347 24 8.03447V18.7781C24 20.0099 23.0004 20.9874 21.7906 20.9874H2.20941C0.977627 20.9874 4.91142e-05 19.9878 4.91142e-05 18.7781V8.03442C0.052221 8.07352 0.10547 8.11153 0.160173 8.14796L9.99427 14.7043Z" fill="#263E33"/>
<path d="M23.0602 6.9777L13.2256 13.5343C12.8534 13.7825 12.4267 13.9066 12 13.9066C11.5733 13.9066 11.1466 13.7825 10.7744 13.5343L0.939843 6.9777C0.351328 6.58559 0 5.92934 0 5.22106C0 4.0032 0.990797 3.01245 2.20861 3.01245H21.7914C23.0092 3.0125 24 4.00325 24 5.22223C24 5.92934 23.6486 6.58559 23.0602 6.9777V6.9777Z" fill="#263E33"/>
</g>
<defs>
<clipPath id="clip0_1_3899">
<rect width="24" height="24" fill="white" transform="matrix(-1 0 0 1 24 0)"/>
</clipPath>
</defs>
</svg>
