<svg width="24" height="24" viewBox="0 0 24 24" fill="none" xmlns="http://www.w3.org/2000/svg">
<path d="M14.4545 22L9.54545 18.25V13.9833L3 6.48333V4.5C3 3.83696 3.2586 3.20107 3.71892 2.73223C4.17924 2.26339 4.80356 2 5.45455 2H18.5455C19.1964 2 19.8208 2.26339 20.2811 2.73223C20.7414 3.20107 21 3.83696 21 4.5V6.48333L14.4545 13.9833V22ZM11.1818 17.4167L12.8182 18.6667V13.35L19.3636 5.85V4.5C19.3636 4.27899 19.2774 4.06702 19.124 3.91074C18.9706 3.75446 18.7625 3.66667 18.5455 3.66667H5.45455C5.23755 3.66667 5.02944 3.75446 4.876 3.91074C4.72256 4.06702 4.63636 4.27899 4.63636 4.5V5.85L11.1818 13.35V17.4167Z" fill="#263E33"/>
</svg>
