<svg width="28" height="28" viewBox="0 0 28 28" fill="none" xmlns="http://www.w3.org/2000/svg">
<path d="M14 0.875C11.4473 0.875 8.99914 1.88906 7.1941 3.6941C5.38906 5.49914 4.375 7.94729 4.375 10.5C4.375 15.5838 12.95 26.3375 13.3175 26.8013C13.3995 26.9034 13.5034 26.9859 13.6215 27.0426C13.7396 27.0993 13.869 27.1287 14 27.1287C14.131 27.1287 14.2604 27.0993 14.3785 27.0426C14.4966 26.9859 14.6005 26.9034 14.6825 26.8013C15.05 26.3375 23.625 15.5838 23.625 10.5C23.625 7.94729 22.6109 5.49914 20.8059 3.6941C19.0009 1.88906 16.5527 0.875 14 0.875ZM14 13.125C13.3078 13.125 12.6311 12.9197 12.0555 12.5351C11.4799 12.1506 11.0313 11.6039 10.7664 10.9644C10.5015 10.3249 10.4322 9.62112 10.5673 8.94218C10.7023 8.26325 11.0356 7.63961 11.5251 7.15013C12.0146 6.66064 12.6383 6.3273 13.3172 6.19225C13.9961 6.0572 14.6999 6.12652 15.3394 6.39142C15.9789 6.65633 16.5256 7.10493 16.9101 7.6805C17.2947 8.25608 17.5 8.93277 17.5 9.625C17.5 10.5533 17.1313 11.4435 16.4749 12.0999C15.8185 12.7563 14.9283 13.125 14 13.125Z" fill="#263E33"/>
</svg>
