<svg width="26" height="32" viewBox="0 0 26 32" fill="none" xmlns="http://www.w3.org/2000/svg">
<path d="M15.8 9.25H10.2C8.9866 9.25 8 9.8256 8 10.5334V11.4666C8 12.1744 8.9868 12.75 10.2 12.75H15.8C17.0134 12.75 18 12.1744 18 11.4666V10.5334C18 9.8256 17.0132 9.25 15.8 9.25Z" fill="#263E33"/>
<path d="M17.8985 7.66006C17.2332 7.38334 16.5189 7.24388 15.7985 7.25006H10.1985C9.478 7.24388 8.76371 7.38334 8.09847 7.66006C7.26743 5.76309 6.89076 3.69828 6.99847 1.63006C7.01703 1.37746 7.13041 1.14121 7.31588 0.968724C7.50135 0.796235 7.74519 0.700262 7.99847 0.700059C8.58329 0.689204 9.1613 0.826827 9.67847 1.10006C9.92766 1.24227 10.2118 1.31157 10.4985 1.30006C10.7819 1.31037 11.0625 1.24108 11.3085 1.10006C11.8312 0.837044 12.4083 0.700055 12.9935 0.700055C13.5787 0.700055 14.1557 0.837044 14.6785 1.10006C14.9245 1.24108 15.2051 1.31037 15.4885 1.30006C15.7752 1.31157 16.0593 1.24227 16.3085 1.10006C16.8256 0.826827 17.4037 0.689204 17.9885 0.700059C18.2418 0.700262 18.4856 0.796235 18.6711 0.968724C18.8565 1.14121 18.9699 1.37746 18.9885 1.63006C19.0965 3.69731 18.7233 5.76143 17.8985 7.66006Z" fill="#263E33"/>
<path d="M24.9993 23.2501C24.6393 19.2101 21.1893 15.7401 18.7993 13.8101C17.9311 14.4472 16.8758 14.7779 15.7993 14.7501H10.1993C9.12273 14.7779 8.06746 14.4472 7.19927 13.8101C4.80928 15.7401 1.35928 19.2101 0.999277 23.2501C0.749277 26.1601 1.30928 28.4001 2.67928 29.8901C3.43129 30.6293 4.33217 31.1998 5.3219 31.5636C6.31164 31.9274 7.36754 32.0762 8.41927 32.0001H17.5793C18.631 32.0762 19.6869 31.9274 20.6766 31.5636C21.6664 31.1998 22.5673 30.6293 23.3193 29.8901C24.6893 28.4001 25.2493 26.1601 24.9993 23.2501ZM12.4993 22.0001H13.4993C14.1187 22.0002 14.7161 22.2303 15.1756 22.6457C15.635 23.0612 15.9239 23.6325 15.9862 24.2488C16.0484 24.8651 15.8797 25.4826 15.5126 25.9816C15.1455 26.4805 14.6062 26.8255 13.9993 26.9495V27.0001C13.9993 27.2653 13.8939 27.5196 13.7064 27.7072C13.5188 27.8947 13.2645 28.0001 12.9993 28.0001C12.7341 28.0001 12.4797 27.8947 12.2922 27.7072C12.1046 27.5196 11.9993 27.2653 11.9993 27.0001H10.9993C10.7341 27.0001 10.4797 26.8947 10.2922 26.7072C10.1046 26.5196 9.99927 26.2653 9.99927 26.0001C9.99927 25.7348 10.1046 25.4805 10.2922 25.2929C10.4797 25.1054 10.7341 25.0001 10.9993 25.0001H13.4993C13.6319 25.0001 13.7591 24.9474 13.8528 24.8536C13.9466 24.7598 13.9993 24.6327 13.9993 24.5001C13.9993 24.3674 13.9466 24.2403 13.8528 24.1465C13.7591 24.0527 13.6319 24.0001 13.4993 24.0001H12.4993C11.8798 23.9999 11.2824 23.7699 10.823 23.3544C10.3635 22.9389 10.0746 22.3677 10.0124 21.7513C9.95011 21.135 10.1189 20.5175 10.486 20.0185C10.8531 19.5196 11.3923 19.1747 11.9993 19.0507V19.0001C11.9993 18.7348 12.1046 18.4805 12.2922 18.293C12.4797 18.1054 12.7341 18.0001 12.9993 18.0001C13.2645 18.0001 13.5188 18.1054 13.7064 18.293C13.8939 18.4805 13.9993 18.7348 13.9993 19.0001H14.9993C15.2645 19.0001 15.5188 19.1054 15.7064 19.293C15.8939 19.4805 15.9993 19.7348 15.9993 20.0001C15.9993 20.2653 15.8939 20.5196 15.7064 20.7072C15.5188 20.8947 15.2645 21.0001 14.9993 21.0001H12.4993C12.3667 21.0001 12.2395 21.0527 12.1457 21.1465C12.052 21.2403 11.9993 21.3674 11.9993 21.5001C11.9993 21.6327 12.052 21.7598 12.1457 21.8536C12.2395 21.9474 12.3667 22.0001 12.4993 22.0001Z" fill="#263E33"/>
</svg>
